<mxfile host="65bd71144e">
    <diagram id="jFA4f1_AUvuBn9dUJKVI" name="Page-1">
        <mxGraphModel dx="1536" dy="1131" grid="1" gridSize="10" guides="1" tooltips="1" connect="1" arrows="1" fold="1" page="1" pageScale="1" pageWidth="850" pageHeight="1100" math="0" shadow="0">
            <root>
                <mxCell id="0"/>
                <mxCell id="1" parent="0"/>
                <mxCell id="3" value="ListableBeanFactory" style="rounded=1;whiteSpace=wrap;html=1;strokeWidth=2;" parent="1" vertex="1">
                    <mxGeometry x="290" y="320" width="170" height="60" as="geometry"/>
                </mxCell>
                <mxCell id="7" value="" style="endArrow=diamondThin;endFill=1;endSize=15;html=1;entryX=0.5;entryY=0;entryDx=0;entryDy=0;strokeWidth=2;" parent="1" source="3" target="9" edge="1">
                    <mxGeometry width="160" relative="1" as="geometry">
                        <mxPoint x="670" y="390" as="sourcePoint"/>
                        <mxPoint x="830" y="390" as="targetPoint"/>
                    </mxGeometry>
                </mxCell>
                <mxCell id="9" value="ApplicationContext" style="rounded=1;whiteSpace=wrap;html=1;strokeWidth=2;" parent="1" vertex="1">
                    <mxGeometry x="290" y="440" width="170" height="60" as="geometry"/>
                </mxCell>
                <mxCell id="22" value="" style="edgeStyle=orthogonalEdgeStyle;rounded=0;orthogonalLoop=1;jettySize=auto;html=1;endSize=6;strokeWidth=2;dashed=1;" parent="1" source="11" target="20" edge="1">
                    <mxGeometry relative="1" as="geometry"/>
                </mxCell>
                <mxCell id="26" value="Create" style="edgeLabel;html=1;align=center;verticalAlign=middle;resizable=0;points=[];" parent="22" vertex="1" connectable="0">
                    <mxGeometry x="-0.3263" y="-4" relative="1" as="geometry">
                        <mxPoint x="16" y="-4" as="offset"/>
                    </mxGeometry>
                </mxCell>
                <mxCell id="11" value="ClassPathXmlApplicationContext" style="rounded=1;whiteSpace=wrap;html=1;strokeWidth=2;" parent="1" vertex="1">
                    <mxGeometry x="280" y="750" width="190" height="60" as="geometry"/>
                </mxCell>
                <mxCell id="19" value="" style="endArrow=block;endFill=0;endSize=12;html=1;strokeWidth=2;exitX=0.5;exitY=0;exitDx=0;exitDy=0;" parent="1" source="56" target="9" edge="1">
                    <mxGeometry width="160" relative="1" as="geometry">
                        <mxPoint x="400" y="770" as="sourcePoint"/>
                        <mxPoint x="560" y="770" as="targetPoint"/>
                    </mxGeometry>
                </mxCell>
                <mxCell id="20" value="XmlBeanDefinitionReader" style="rounded=1;whiteSpace=wrap;html=1;strokeWidth=2;" parent="1" vertex="1">
                    <mxGeometry x="560" y="750" width="190" height="60" as="geometry"/>
                </mxCell>
                <mxCell id="27" value="DefinitionReader" style="rounded=1;whiteSpace=wrap;html=1;strokeWidth=2;" parent="1" vertex="1">
                    <mxGeometry x="565" y="470" width="180" height="60" as="geometry"/>
                </mxCell>
                <mxCell id="29" value="" style="endArrow=block;dashed=1;endFill=0;endSize=12;html=1;strokeWidth=2;entryX=0.5;entryY=1;entryDx=0;entryDy=0;exitX=0.5;exitY=0;exitDx=0;exitDy=0;" parent="1" source="20" target="27" edge="1">
                    <mxGeometry width="160" relative="1" as="geometry">
                        <mxPoint x="645" y="600" as="sourcePoint"/>
                        <mxPoint x="650" y="510" as="targetPoint"/>
                    </mxGeometry>
                </mxCell>
                <mxCell id="30" value="BeanDefinitionRegister" style="rounded=1;whiteSpace=wrap;html=1;strokeWidth=2;" parent="1" vertex="1">
                    <mxGeometry x="570" y="380" width="170" height="60" as="geometry"/>
                </mxCell>
                <mxCell id="31" value="" style="endArrow=diamondThin;endFill=1;endSize=15;html=1;entryX=0.5;entryY=0;entryDx=0;entryDy=0;strokeWidth=2;" parent="1" source="30" edge="1">
                    <mxGeometry width="160" relative="1" as="geometry">
                        <mxPoint x="950" y="420" as="sourcePoint"/>
                        <mxPoint x="655" y="470" as="targetPoint"/>
                    </mxGeometry>
                </mxCell>
                <mxCell id="37" value="" style="edgeStyle=orthogonalEdgeStyle;rounded=0;orthogonalLoop=1;jettySize=auto;html=1;endSize=6;strokeWidth=2;" parent="1" source="32" target="30" edge="1">
                    <mxGeometry relative="1" as="geometry"/>
                </mxCell>
                <mxCell id="32" value="BeanDefinition" style="rounded=1;whiteSpace=wrap;html=1;strokeWidth=2;" parent="1" vertex="1">
                    <mxGeometry x="570" y="290" width="170" height="60" as="geometry"/>
                </mxCell>
                <mxCell id="34" value="" style="endArrow=diamondThin;endFill=1;endSize=15;html=1;entryX=0.5;entryY=0;entryDx=0;entryDy=0;strokeWidth=2;exitX=0.5;exitY=1;exitDx=0;exitDy=0;" parent="1" source="32" target="30" edge="1">
                    <mxGeometry width="160" relative="1" as="geometry">
                        <mxPoint x="655" y="290" as="sourcePoint"/>
                        <mxPoint x="654.5" y="330" as="targetPoint"/>
                    </mxGeometry>
                </mxCell>
                <mxCell id="35" value="MutablePropertyValues" style="rounded=1;whiteSpace=wrap;html=1;strokeWidth=2;" parent="1" vertex="1">
                    <mxGeometry x="570" y="190" width="170" height="60" as="geometry"/>
                </mxCell>
                <mxCell id="38" value="" style="endArrow=diamondThin;endFill=1;endSize=15;html=1;strokeWidth=2;exitX=0.5;exitY=1;exitDx=0;exitDy=0;entryX=0.5;entryY=0;entryDx=0;entryDy=0;" parent="1" source="35" target="32" edge="1">
                    <mxGeometry width="160" relative="1" as="geometry">
                        <mxPoint x="654.5" y="220" as="sourcePoint"/>
                        <mxPoint x="655" y="280" as="targetPoint"/>
                    </mxGeometry>
                </mxCell>
                <mxCell id="39" value="PropertyValues" style="rounded=1;whiteSpace=wrap;html=1;strokeWidth=2;" parent="1" vertex="1">
                    <mxGeometry x="570" y="90" width="170" height="60" as="geometry"/>
                </mxCell>
                <mxCell id="41" value="" style="endArrow=diamondThin;endFill=1;endSize=15;html=1;strokeWidth=2;entryX=0.5;entryY=0;entryDx=0;entryDy=0;" parent="1" source="39" target="35" edge="1">
                    <mxGeometry width="160" relative="1" as="geometry">
                        <mxPoint x="332.5" y="150" as="sourcePoint"/>
                        <mxPoint x="417.5" y="150" as="targetPoint"/>
                    </mxGeometry>
                </mxCell>
                <mxCell id="42" value="DefaultListableBeanFactory" style="rounded=1;whiteSpace=wrap;html=1;strokeWidth=2;" parent="1" vertex="1">
                    <mxGeometry x="60" y="320" width="170" height="60" as="geometry"/>
                </mxCell>
                <mxCell id="44" value="" style="endArrow=block;dashed=1;endFill=0;endSize=12;html=1;strokeWidth=2;exitX=1;exitY=0.5;exitDx=0;exitDy=0;entryX=0;entryY=0.5;entryDx=0;entryDy=0;" parent="1" source="42" target="3" edge="1">
                    <mxGeometry width="160" relative="1" as="geometry">
                        <mxPoint x="270" y="400" as="sourcePoint"/>
                        <mxPoint x="270" y="340" as="targetPoint"/>
                    </mxGeometry>
                </mxCell>
                <mxCell id="45" value="&lt;b style=&quot;font-size: 15px&quot;&gt;BeanDefinition&lt;br&gt;&lt;br&gt;1. class&lt;br&gt;2. scope&lt;br&gt;3. lazy-init&lt;br&gt;4. constructor-arg&lt;br&gt;5. property: MutabeProrpertyValues&lt;br&gt;6. factory-method&lt;br&gt;7. destory-method&lt;br&gt;8. init-method&lt;br&gt;9. autowire&lt;br&gt;10. id&lt;br&gt;11. name&lt;/b&gt;" style="shape=note;strokeWidth=1;fontSize=14;size=20;whiteSpace=wrap;html=1;align=left;fillColor=#FFFFCC;strokeColor=none;" parent="1" vertex="1">
                    <mxGeometry x="40" y="20" width="270" height="250" as="geometry"/>
                </mxCell>
                <mxCell id="48" value="" style="edgeStyle=orthogonalEdgeStyle;rounded=0;orthogonalLoop=1;jettySize=auto;html=1;strokeWidth=2;" parent="1" source="46" target="47" edge="1">
                    <mxGeometry relative="1" as="geometry"/>
                </mxCell>
                <mxCell id="49" value="" style="edgeStyle=orthogonalEdgeStyle;rounded=0;orthogonalLoop=1;jettySize=auto;html=1;strokeWidth=2;" parent="1" source="46" target="47" edge="1">
                    <mxGeometry relative="1" as="geometry"/>
                </mxCell>
                <mxCell id="53" style="edgeStyle=orthogonalEdgeStyle;rounded=0;orthogonalLoop=1;jettySize=auto;html=1;strokeWidth=2;" parent="1" source="46" target="50" edge="1">
                    <mxGeometry relative="1" as="geometry"/>
                </mxCell>
                <mxCell id="54" style="edgeStyle=orthogonalEdgeStyle;rounded=0;orthogonalLoop=1;jettySize=auto;html=1;exitX=1;exitY=0.5;exitDx=0;exitDy=0;entryX=0;entryY=0.5;entryDx=0;entryDy=0;strokeWidth=2;" parent="1" source="46" target="51" edge="1">
                    <mxGeometry relative="1" as="geometry"/>
                </mxCell>
                <mxCell id="55" style="edgeStyle=orthogonalEdgeStyle;rounded=0;orthogonalLoop=1;jettySize=auto;html=1;entryX=0;entryY=0.5;entryDx=0;entryDy=0;strokeWidth=2;" parent="1" source="46" target="47" edge="1">
                    <mxGeometry relative="1" as="geometry"/>
                </mxCell>
                <mxCell id="46" value="DefinitionReader" style="rounded=1;whiteSpace=wrap;html=1;strokeWidth=2;" parent="1" vertex="1">
                    <mxGeometry x="155" y="930" width="180" height="60" as="geometry"/>
                </mxCell>
                <mxCell id="47" value="读取配置文件" style="rounded=1;whiteSpace=wrap;html=1;strokeWidth=2;" parent="1" vertex="1">
                    <mxGeometry x="415" y="840" width="180" height="60" as="geometry"/>
                </mxCell>
                <mxCell id="50" value="创建BeanDefinition" style="rounded=1;whiteSpace=wrap;html=1;strokeWidth=2;" parent="1" vertex="1">
                    <mxGeometry x="415" y="930" width="180" height="60" as="geometry"/>
                </mxCell>
                <mxCell id="51" value="注册到BeanDefinitionRegister" style="rounded=1;whiteSpace=wrap;html=1;strokeWidth=2;" parent="1" vertex="1">
                    <mxGeometry x="415" y="1010" width="180" height="60" as="geometry"/>
                </mxCell>
                <mxCell id="58" value="" style="edgeStyle=orthogonalEdgeStyle;rounded=0;orthogonalLoop=1;jettySize=auto;html=1;strokeWidth=2;" parent="1" source="56" target="57" edge="1">
                    <mxGeometry relative="1" as="geometry"/>
                </mxCell>
                <mxCell id="56" value="ConfigurableApplicationContext" style="rounded=1;whiteSpace=wrap;html=1;strokeWidth=2;" parent="1" vertex="1">
                    <mxGeometry x="280" y="540" width="190" height="60" as="geometry"/>
                </mxCell>
                <mxCell id="57" value="refresh" style="rounded=1;whiteSpace=wrap;html=1;strokeWidth=2;fillColor=#d5e8d4;strokeColor=#82b366;" parent="1" vertex="1">
                    <mxGeometry x="520" y="550" width="100" height="40" as="geometry"/>
                </mxCell>
                <mxCell id="59" value="" style="endArrow=block;endFill=0;endSize=12;html=1;strokeWidth=2;exitX=0.5;exitY=0;exitDx=0;exitDy=0;entryX=0.5;entryY=1;entryDx=0;entryDy=0;" parent="1" source="61" target="56" edge="1">
                    <mxGeometry width="160" relative="1" as="geometry">
                        <mxPoint x="374.5" y="690" as="sourcePoint"/>
                        <mxPoint x="374.5" y="640" as="targetPoint"/>
                    </mxGeometry>
                </mxCell>
                <mxCell id="60" value="&lt;b&gt;&lt;font style=&quot;font-size: 14px&quot;&gt;create&lt;/font&gt;&lt;/b&gt;" style="text;html=1;align=center;verticalAlign=middle;resizable=0;points=[];autosize=1;strokeColor=none;" parent="1" vertex="1">
                    <mxGeometry x="345" y="390" width="60" height="20" as="geometry"/>
                </mxCell>
                <mxCell id="64" value="" style="edgeStyle=orthogonalEdgeStyle;rounded=0;orthogonalLoop=1;jettySize=auto;html=1;strokeWidth=2;entryX=0;entryY=0.5;entryDx=0;entryDy=0;" parent="1" source="61" target="65" edge="1">
                    <mxGeometry relative="1" as="geometry">
                        <mxPoint x="550" y="670" as="targetPoint"/>
                    </mxGeometry>
                </mxCell>
                <mxCell id="61" value="AbstractApplicationContext" style="rounded=1;whiteSpace=wrap;html=1;strokeWidth=2;" parent="1" vertex="1">
                    <mxGeometry x="280" y="640" width="190" height="60" as="geometry"/>
                </mxCell>
                <mxCell id="62" value="" style="endArrow=block;endFill=0;endSize=12;html=1;strokeWidth=2;exitX=0.5;exitY=0;exitDx=0;exitDy=0;entryX=0.5;entryY=1;entryDx=0;entryDy=0;" parent="1" source="11" edge="1">
                    <mxGeometry width="160" relative="1" as="geometry">
                        <mxPoint x="374.5" y="740" as="sourcePoint"/>
                        <mxPoint x="374.5" y="700" as="targetPoint"/>
                    </mxGeometry>
                </mxCell>
                <mxCell id="65" value="refresh" style="rounded=1;whiteSpace=wrap;html=1;strokeWidth=2;fillColor=#f8cecc;strokeColor=#b85450;" parent="1" vertex="1">
                    <mxGeometry x="520" y="650" width="100" height="40" as="geometry"/>
                </mxCell>
                <mxCell id="69" value="" style="endArrow=block;endFill=0;endSize=12;html=1;strokeWidth=2;exitX=0.5;exitY=0;exitDx=0;exitDy=0;entryX=0.5;entryY=1;entryDx=0;entryDy=0;dashed=1;" parent="1" source="65" target="57" edge="1">
                    <mxGeometry width="160" relative="1" as="geometry">
                        <mxPoint x="570" y="640" as="sourcePoint"/>
                        <mxPoint x="570" y="600" as="targetPoint"/>
                    </mxGeometry>
                </mxCell>
                <mxCell id="71" value="实现" style="text;html=1;align=center;verticalAlign=middle;resizable=0;points=[];autosize=1;strokeColor=#82b366;fillColor=#d5e8d4;" parent="1" vertex="1">
                    <mxGeometry x="550" y="615" width="40" height="20" as="geometry"/>
                </mxCell>
                <mxCell id="92" style="edgeStyle=orthogonalEdgeStyle;rounded=0;orthogonalLoop=1;jettySize=auto;html=1;strokeWidth=2;dashed=1;dashPattern=1 1;endArrow=open;endFill=0;" edge="1" parent="1" source="77" target="81">
                    <mxGeometry relative="1" as="geometry"/>
                </mxCell>
                <mxCell id="77" value="AbstractRefreshableApplicationContext" style="rounded=1;whiteSpace=wrap;html=1;strokeWidth=2;" vertex="1" parent="1">
                    <mxGeometry x="432.5" y="1250" width="250" height="40" as="geometry"/>
                </mxCell>
                <mxCell id="84" value="" style="edgeStyle=orthogonalEdgeStyle;rounded=0;orthogonalLoop=1;jettySize=auto;html=1;strokeWidth=2;" edge="1" parent="1" source="81" target="83">
                    <mxGeometry relative="1" as="geometry"/>
                </mxCell>
                <mxCell id="81" value="#refreshBeanFactory" style="rounded=1;whiteSpace=wrap;html=1;strokeWidth=2;" vertex="1" parent="1">
                    <mxGeometry x="70" y="1250" width="200" height="40" as="geometry"/>
                </mxCell>
                <mxCell id="89" value="" style="edgeStyle=orthogonalEdgeStyle;rounded=0;orthogonalLoop=1;jettySize=auto;html=1;strokeWidth=2;" edge="1" parent="1" source="83" target="88">
                    <mxGeometry relative="1" as="geometry"/>
                </mxCell>
                <mxCell id="83" value="loadBeanDefinitions(beanFactory)" style="rounded=1;whiteSpace=wrap;html=1;strokeWidth=2;" vertex="1" parent="1">
                    <mxGeometry x="70" y="1330" width="200" height="40" as="geometry"/>
                </mxCell>
                <mxCell id="93" style="edgeStyle=orthogonalEdgeStyle;rounded=0;orthogonalLoop=1;jettySize=auto;html=1;entryX=1;entryY=0.5;entryDx=0;entryDy=0;strokeWidth=2;dashed=1;dashPattern=1 1;endArrow=openThin;endFill=0;" edge="1" parent="1" source="86" target="83">
                    <mxGeometry relative="1" as="geometry"/>
                </mxCell>
                <mxCell id="86" value="AbstractXmlApplicationContext" style="rounded=1;whiteSpace=wrap;html=1;strokeWidth=2;" vertex="1" parent="1">
                    <mxGeometry x="435" y="1330" width="245" height="40" as="geometry"/>
                </mxCell>
                <mxCell id="97" value="" style="edgeStyle=orthogonalEdgeStyle;rounded=0;orthogonalLoop=1;jettySize=auto;html=1;strokeWidth=2;" edge="1" parent="1" source="88" target="96">
                    <mxGeometry relative="1" as="geometry"/>
                </mxCell>
                <mxCell id="88" value="loadBeanDefinitions(reader)" style="rounded=1;whiteSpace=wrap;html=1;strokeWidth=2;" vertex="1" parent="1">
                    <mxGeometry x="70" y="1410" width="200" height="40" as="geometry"/>
                </mxCell>
                <mxCell id="95" style="edgeStyle=orthogonalEdgeStyle;rounded=0;orthogonalLoop=1;jettySize=auto;html=1;entryX=1;entryY=0.5;entryDx=0;entryDy=0;strokeWidth=2;dashed=1;dashPattern=1 1;endArrow=openThin;endFill=0;" edge="1" parent="1" source="90" target="88">
                    <mxGeometry relative="1" as="geometry"/>
                </mxCell>
                <mxCell id="90" value="&lt;span&gt;AbstractXmlApplicationContext&lt;/span&gt;" style="rounded=1;whiteSpace=wrap;html=1;strokeWidth=2;" vertex="1" parent="1">
                    <mxGeometry x="437.5" y="1410" width="240" height="40" as="geometry"/>
                </mxCell>
                <mxCell id="94" value="创建 XmlBeanDefinitionReader" style="text;html=1;align=center;verticalAlign=middle;resizable=0;points=[];autosize=1;strokeColor=none;" vertex="1" parent="1">
                    <mxGeometry x="455" y="1380" width="180" height="20" as="geometry"/>
                </mxCell>
                <mxCell id="104" value="" style="edgeStyle=orthogonalEdgeStyle;rounded=0;orthogonalLoop=1;jettySize=auto;html=1;strokeWidth=2;strokeColor=#FF0080;" edge="1" parent="1" source="96" target="101">
                    <mxGeometry relative="1" as="geometry"/>
                </mxCell>
                <mxCell id="96" value="loadBeanDefinitions(String[])" style="rounded=1;whiteSpace=wrap;html=1;strokeWidth=2;strokeColor=#FF0080;" vertex="1" parent="1">
                    <mxGeometry x="70" y="1510" width="200" height="40" as="geometry"/>
                </mxCell>
                <mxCell id="100" style="edgeStyle=orthogonalEdgeStyle;rounded=0;orthogonalLoop=1;jettySize=auto;html=1;strokeWidth=2;dashed=1;dashPattern=1 1;endArrow=openThin;endFill=0;strokeColor=#FF0080;" edge="1" parent="1" source="98" target="96">
                    <mxGeometry relative="1" as="geometry"/>
                </mxCell>
                <mxCell id="98" value="AbstractBeanDefinitionReader" style="rounded=1;whiteSpace=wrap;html=1;strokeWidth=2;strokeColor=#FF0080;" vertex="1" parent="1">
                    <mxGeometry x="440" y="1510" width="235" height="40" as="geometry"/>
                </mxCell>
                <mxCell id="106" value="" style="edgeStyle=orthogonalEdgeStyle;rounded=0;orthogonalLoop=1;jettySize=auto;html=1;strokeWidth=2;strokeColor=#FF0080;" edge="1" parent="1" source="101" target="105">
                    <mxGeometry relative="1" as="geometry"/>
                </mxCell>
                <mxCell id="101" value="loadBeanDefinitions(String)" style="rounded=1;whiteSpace=wrap;html=1;strokeWidth=2;strokeColor=#FF0080;" vertex="1" parent="1">
                    <mxGeometry x="70" y="1590" width="200" height="40" as="geometry"/>
                </mxCell>
                <mxCell id="102" style="edgeStyle=orthogonalEdgeStyle;rounded=0;orthogonalLoop=1;jettySize=auto;html=1;strokeWidth=2;dashed=1;dashPattern=1 1;endArrow=openThin;endFill=0;strokeColor=#FF0080;" edge="1" parent="1" source="103" target="101">
                    <mxGeometry relative="1" as="geometry"/>
                </mxCell>
                <mxCell id="103" value="AbstractBeanDefinitionReader" style="rounded=1;whiteSpace=wrap;html=1;strokeWidth=2;strokeColor=#FF0080;" vertex="1" parent="1">
                    <mxGeometry x="440" y="1590" width="235" height="40" as="geometry"/>
                </mxCell>
                <mxCell id="111" value="" style="edgeStyle=orthogonalEdgeStyle;rounded=0;orthogonalLoop=1;jettySize=auto;html=1;strokeWidth=2;" edge="1" parent="1" source="105" target="110">
                    <mxGeometry relative="1" as="geometry"/>
                </mxCell>
                <mxCell id="105" value="loadBeanDefinitions(Resource[])" style="rounded=1;whiteSpace=wrap;html=1;strokeWidth=2;strokeColor=#FF0080;" vertex="1" parent="1">
                    <mxGeometry x="70" y="1670" width="200" height="40" as="geometry"/>
                </mxCell>
                <mxCell id="108" style="edgeStyle=orthogonalEdgeStyle;rounded=0;orthogonalLoop=1;jettySize=auto;html=1;strokeWidth=2;dashed=1;dashPattern=1 1;endArrow=openThin;endFill=0;strokeColor=#FF0080;" edge="1" parent="1" source="109">
                    <mxGeometry relative="1" as="geometry">
                        <mxPoint x="270" y="1690" as="targetPoint"/>
                    </mxGeometry>
                </mxCell>
                <mxCell id="109" value="AbstractBeanDefinitionReader" style="rounded=1;whiteSpace=wrap;html=1;strokeWidth=2;strokeColor=#FF0080;" vertex="1" parent="1">
                    <mxGeometry x="440" y="1670" width="235" height="40" as="geometry"/>
                </mxCell>
                <mxCell id="116" value="" style="edgeStyle=orthogonalEdgeStyle;rounded=0;orthogonalLoop=1;jettySize=auto;html=1;strokeWidth=2;" edge="1" parent="1" source="110" target="115">
                    <mxGeometry relative="1" as="geometry"/>
                </mxCell>
                <mxCell id="110" value="loadBeanDefinitions(Resource)" style="rounded=1;whiteSpace=wrap;html=1;strokeWidth=2;" vertex="1" parent="1">
                    <mxGeometry x="70" y="1770" width="200" height="40" as="geometry"/>
                </mxCell>
                <mxCell id="112" style="edgeStyle=orthogonalEdgeStyle;rounded=0;orthogonalLoop=1;jettySize=auto;html=1;strokeWidth=2;dashed=1;dashPattern=1 1;endArrow=openThin;endFill=0;" edge="1" parent="1" source="113">
                    <mxGeometry relative="1" as="geometry">
                        <mxPoint x="270" y="1790" as="targetPoint"/>
                    </mxGeometry>
                </mxCell>
                <mxCell id="113" value="XmlBeanDefinitionReader" style="rounded=1;whiteSpace=wrap;html=1;strokeWidth=2;" vertex="1" parent="1">
                    <mxGeometry x="440" y="1770" width="235" height="40" as="geometry"/>
                </mxCell>
                <mxCell id="114" value="是接口, XML 是其一实现" style="text;html=1;align=center;verticalAlign=middle;resizable=0;points=[];autosize=1;strokeColor=none;" vertex="1" parent="1">
                    <mxGeometry x="472.5" y="1820" width="150" height="20" as="geometry"/>
                </mxCell>
                <mxCell id="122" value="" style="edgeStyle=orthogonalEdgeStyle;rounded=0;orthogonalLoop=1;jettySize=auto;html=1;endArrow=classic;endFill=1;strokeWidth=2;" edge="1" parent="1" source="115" target="121">
                    <mxGeometry relative="1" as="geometry"/>
                </mxCell>
                <mxCell id="115" value="doLloadBeanDefinitions(InStream, Resouce)" style="rounded=1;whiteSpace=wrap;html=1;strokeWidth=2;" vertex="1" parent="1">
                    <mxGeometry x="35" y="1910" width="270" height="40" as="geometry"/>
                </mxCell>
                <mxCell id="117" value="读配置文件" style="text;html=1;align=center;verticalAlign=middle;resizable=0;points=[];autosize=1;strokeColor=none;" vertex="1" parent="1">
                    <mxGeometry x="130" y="1830" width="80" height="20" as="geometry"/>
                </mxCell>
                <mxCell id="120" value="" style="edgeStyle=orthogonalEdgeStyle;rounded=0;orthogonalLoop=1;jettySize=auto;html=1;strokeWidth=2;dashed=1;dashPattern=1 1;endArrow=openThin;endFill=0;" edge="1" parent="1" source="118" target="115">
                    <mxGeometry relative="1" as="geometry"/>
                </mxCell>
                <mxCell id="118" value="XmlBeanDefinitionReader" style="rounded=1;whiteSpace=wrap;html=1;strokeWidth=2;" vertex="1" parent="1">
                    <mxGeometry x="440" y="1910" width="235" height="40" as="geometry"/>
                </mxCell>
                <mxCell id="126" value="" style="edgeStyle=orthogonalEdgeStyle;rounded=0;orthogonalLoop=1;jettySize=auto;html=1;endArrow=classic;endFill=1;strokeWidth=2;" edge="1" parent="1" source="121" target="125">
                    <mxGeometry relative="1" as="geometry"/>
                </mxCell>
                <mxCell id="121" value="registerBeanDefinitions(doc, resource)" style="rounded=1;whiteSpace=wrap;html=1;strokeWidth=2;fillColor=#eeeeee;strokeColor=#36393d;" vertex="1" parent="1">
                    <mxGeometry x="35" y="1990" width="270" height="40" as="geometry"/>
                </mxCell>
                <mxCell id="123" value="" style="edgeStyle=orthogonalEdgeStyle;rounded=0;orthogonalLoop=1;jettySize=auto;html=1;strokeWidth=2;dashed=1;dashPattern=1 1;endArrow=openThin;endFill=0;" edge="1" parent="1" source="124">
                    <mxGeometry relative="1" as="geometry">
                        <mxPoint x="305" y="2010" as="targetPoint"/>
                    </mxGeometry>
                </mxCell>
                <mxCell id="124" value="XmlBeanDefinitionReader" style="rounded=1;whiteSpace=wrap;html=1;strokeWidth=2;" vertex="1" parent="1">
                    <mxGeometry x="440" y="1990" width="235" height="40" as="geometry"/>
                </mxCell>
                <mxCell id="125" value="doRegisterBeanDefinitions(doc)" style="rounded=1;whiteSpace=wrap;html=1;strokeWidth=2;" vertex="1" parent="1">
                    <mxGeometry x="35" y="2060" width="270" height="40" as="geometry"/>
                </mxCell>
                <mxCell id="127" value="" style="edgeStyle=orthogonalEdgeStyle;rounded=0;orthogonalLoop=1;jettySize=auto;html=1;strokeWidth=2;dashed=1;dashPattern=1 1;endArrow=openThin;endFill=0;" edge="1" parent="1" source="128">
                    <mxGeometry relative="1" as="geometry">
                        <mxPoint x="305" y="2080" as="targetPoint"/>
                    </mxGeometry>
                </mxCell>
                <mxCell id="128" value="DefaultBeanDefinitionDocumentReader" style="rounded=1;whiteSpace=wrap;html=1;strokeWidth=2;" vertex="1" parent="1">
                    <mxGeometry x="440" y="2060" width="235" height="40" as="geometry"/>
                </mxCell>
            </root>
        </mxGraphModel>
    </diagram>
</mxfile>
